<?xml version="1.0" encoding="UTF-8"?>
<svg xmlns="http://www.w3.org/2000/svg" viewBox="0 0 400 560">
  <defs>
    <linearGradient id="trunkGrad" x1="0%" y1="0%" x2="100%" y2="0%">
      <stop offset="0%" style="stop-color:#6B5B45"/>
      <stop offset="50%" style="stop-color:#5D4E37"/>
      <stop offset="100%" style="stop-color:#4A3C2A"/>
    </linearGradient>
    <linearGradient id="leafGreen" x1="0%" y1="0%" x2="0%" y2="100%">
      <stop offset="0%" style="stop-color:#6B7F3C"/>
      <stop offset="100%" style="stop-color:#556B2F"/>
    </linearGradient>
  </defs>
  <!-- Trunk (tapered) -->
  <g id="trunk">
    <path fill="url(#trunkGrad)" stroke="#3E3229" stroke-width="1.2" d="M 186 224 L 214 224 L 226 520 L 174 520 Z"/>
  </g>
  <!-- Roots (curved paths + node circles) -->
  <g id="root-fajr">
    <path fill="none" stroke="#4A3C2A" stroke-width="5" stroke-linecap="round" d="M 179 520 Q 130 530 90 538"/>
    <circle cx="90" cy="528" r="18" fill="#5D4E37" stroke="#3E3229" stroke-width="1.5"/>
  </g>
  <g id="root-dhuhr">
    <path fill="none" stroke="#4A3C2A" stroke-width="5" stroke-linecap="round" d="M 189 520 Q 165 528 145 538"/>
    <circle cx="145" cy="528" r="18" fill="#5D4E37" stroke="#3E3229" stroke-width="1.5"/>
  </g>
  <g id="root-asr">
    <path fill="none" stroke="#4A3C2A" stroke-width="5" stroke-linecap="round" d="M 200 520 Q 200 530 200 538"/>
    <circle cx="200" cy="528" r="18" fill="#5D4E37" stroke="#3E3229" stroke-width="1.5"/>
  </g>
  <g id="root-maghrib">
    <path fill="none" stroke="#4A3C2A" stroke-width="5" stroke-linecap="round" d="M 211 520 Q 235 528 255 538"/>
    <circle cx="255" cy="528" r="18" fill="#5D4E37" stroke="#3E3229" stroke-width="1.5"/>
  </g>
  <g id="root-isha">
    <path fill="none" stroke="#4A3C2A" stroke-width="5" stroke-linecap="round" d="M 221 520 Q 270 530 310 538"/>
    <circle cx="310" cy="528" r="18" fill="#5D4E37" stroke="#3E3229" stroke-width="1.5"/>
  </g>
  <!-- Branches (curved) + leaf nodes -->
  <g id="branch-sunnah">
    <path fill="none" stroke="#1C1C1C" stroke-width="2.5" stroke-linecap="round" d="M 200 235 Q 155 200 124 122"/>
    <ellipse cx="124" cy="122" rx="16" ry="14" fill="url(#leafGreen)" stroke="#3D4E2A" stroke-width="1.2"/>
  </g>
  <g id="branch-sadaqa">
    <path fill="none" stroke="#1C1C1C" stroke-width="2.5" stroke-linecap="round" d="M 200 240 Q 140 215 96 168"/>
    <rect x="80" y="152" width="32" height="32" rx="6" fill="url(#leafGreen)" stroke="#3D4E2A" stroke-width="1.2"/>
  </g>
  <g id="branch-morning-zikr">
    <path fill="none" stroke="#1C1C1C" stroke-width="2.5" stroke-linecap="round" d="M 200 245 Q 125 235 85 212"/>
    <polygon points="85,185 105,220 85,255 65,220" fill="url(#leafGreen)" stroke="#3D4E2A" stroke-width="1.2"/>
  </g>
  <g id="branch-sleeping-zikr">
    <path fill="none" stroke="#1C1C1C" stroke-width="2.5" stroke-linecap="round" d="M 200 250 Q 115 255 95 268"/>
    <ellipse cx="95" cy="258" rx="14" ry="18" fill="url(#leafGreen)" stroke="#3D4E2A" stroke-width="1.2"/>
  </g>
  <g id="branch-evening-zikr">
    <path fill="none" stroke="#1C1C1C" stroke-width="2.5" stroke-linecap="round" d="M 200 235 Q 245 200 276 122"/>
    <ellipse cx="276" cy="122" rx="16" ry="14" fill="url(#leafGreen)" stroke="#3D4E2A" stroke-width="1.2"/>
  </g>
  <g id="branch-extra-duaa">
    <path fill="none" stroke="#1C1C1C" stroke-width="2.5" stroke-linecap="round" d="M 200 240 Q 260 215 304 168"/>
    <rect x="288" y="152" width="32" height="32" rx="6" fill="url(#leafGreen)" stroke="#3D4E2A" stroke-width="1.2"/>
  </g>
  <g id="branch-extra-zikr">
    <path fill="none" stroke="#1C1C1C" stroke-width="2.5" stroke-linecap="round" d="M 200 245 Q 275 235 315 212"/>
    <polygon points="315,185 335,220 315,255 295,220" fill="url(#leafGreen)" stroke="#3D4E2A" stroke-width="1.2"/>
  </g>
  <g id="branch-extra-salah">
    <path fill="none" stroke="#1C1C1C" stroke-width="2.5" stroke-linecap="round" d="M 200 250 Q 285 255 305 268"/>
    <ellipse cx="305" cy="258" rx="14" ry="18" fill="url(#leafGreen)" stroke="#3D4E2A" stroke-width="1.2"/>
  </g>
</svg>
